<svg id="visual" viewBox="0 0 900 60" width="900" height="60" xmlns="http://www.w3.org/2000/svg" xmlns:xlink="http://www.w3.org/1999/xlink" version="1.1">
  <path d="M0 45L9.3 39.8C18.7 34.7 37.3 24.3 56.2 23.8C75 23.3 94 32.7 112.8 32.5C131.7 32.3 150.3 22.7 169 22.7C187.7 22.7 206.3 32.3 225 31.5C243.7 30.7 262.3 19.3 281.2 16C300 12.7 319 17.3 337.8 23.2C356.7 29 375.3 36 394 38.3C412.7 40.7 431.3 38.3 450 38.2C468.7 38 487.3 40 506.2 36C525 32 544 22 562.8 20C581.7 18 600.3 24 619 29.2C637.7 34.3 656.3 38.7 675 41.2C693.7 43.7 712.3 44.3 731.2 41C750 37.7 769 30.3 787.8 26.8C806.7 23.3 825.3 23.7 844 24.8C862.7 26 881.3 28 890.7 29L900 30L900 61L890.7 61C881.3 61 862.7 61 844 61C825.3 61 806.7 61 787.8 61C769 61 750 61 731.2 61C712.3 61 693.7 61 675 61C656.3 61 637.7 61 619 61C600.3 61 581.7 61 562.8 61C544 61 525 61 506.2 61C487.3 61 468.7 61 450 61C431.3 61 412.7 61 394 61C375.3 61 356.7 61 337.8 61C319 61 300 61 281.2 61C262.3 61 243.7 61 225 61C206.3 61 187.7 61 169 61C150.3 61 131.7 61 112.8 61C94 61 75 61 56.2 61C37.3 61 18.7 61 9.3 61L0 61Z" fill="#531e2c" stroke-linecap="round" stroke-linejoin="miter"></path>
</svg>