<svg id="visual" viewBox="0 0 960 540" width="960" height="540" xmlns="http://www.w3.org/2000/svg" xmlns:xlink="http://www.w3.org/1999/xlink" version="1.1"><g stroke-width="1" stroke-linejoin="bevel"><path d="M488 278L485 340.5L552.6 273Z" fill="#5a2028" stroke="#5a2028"></path><path d="M485 340.5L572.6 322.5L552.6 273Z" fill="#00101c" stroke="#00101c"></path><path d="M485 340.5L541.6 411L572.6 322.5Z" fill="#451c32" stroke="#451c32"></path><path d="M485 340.5L489 421L541.6 411Z" fill="#602521" stroke="#602521"></path><path d="M641.1 403L640.1 345.5L572.6 322.5Z" fill="#602521" stroke="#602521"></path><path d="M642.1 262L600.1 211.5L552.6 273Z" fill="#451c32" stroke="#451c32"></path><path d="M569.6 189.5L470 200.5L552.6 273Z" fill="#00101c" stroke="#00101c"></path><path d="M552.6 273L470 200.5L488 278Z" fill="#511d2e" stroke="#511d2e"></path><path d="M393.4 295L399.4 344.5L485 340.5Z" fill="#642d19" stroke="#642d19"></path><path d="M485 340.5L436.4 421L489 421Z" fill="#642d19" stroke="#642d19"></path><path d="M642.1 262L552.6 273L572.6 322.5Z" fill="#14172a" stroke="#14172a"></path><path d="M393.4 295L485 340.5L488 278Z" fill="#2c1a32" stroke="#2c1a32"></path><path d="M640.1 345.5L642.1 262L572.6 322.5Z" fill="#20192f" stroke="#20192f"></path><path d="M600.1 211.5L569.6 189.5L552.6 273Z" fill="#642d19" stroke="#642d19"></path><path d="M431.4 196.5L393.4 295L488 278Z" fill="#602521" stroke="#602521"></path><path d="M640.1 345.5L658.7 278L642.1 262Z" fill="#642d19" stroke="#642d19"></path><path d="M642.1 262L686.7 222.5L600.1 211.5Z" fill="#0a1423" stroke="#0a1423"></path><path d="M399.4 344.5L436.4 421L485 340.5Z" fill="#642d19" stroke="#642d19"></path><path d="M465 127L431.4 196.5L470 200.5Z" fill="#391b33" stroke="#391b33"></path><path d="M470 200.5L431.4 196.5L488 278Z" fill="#14172a" stroke="#14172a"></path><path d="M573.6 461.5L641.1 403L541.6 411Z" fill="#602521" stroke="#602521"></path><path d="M541.6 411L641.1 403L572.6 322.5Z" fill="#5a2028" stroke="#5a2028"></path><path d="M640.1 345.5L697.7 352.5L658.7 278Z" fill="#20192f" stroke="#20192f"></path><path d="M480 472.5L541.6 411L489 421Z" fill="#511d2e" stroke="#511d2e"></path><path d="M480 472.5L573.6 461.5L541.6 411Z" fill="#0a1423" stroke="#0a1423"></path><path d="M431.4 196.5L369.9 262L393.4 295Z" fill="#602521" stroke="#602521"></path><path d="M317.9 334.5L354.9 378L399.4 344.5Z" fill="#20192f" stroke="#20192f"></path><path d="M436.4 421L480 472.5L489 421Z" fill="#00101c" stroke="#00101c"></path><path d="M641.1 403L697.7 352.5L640.1 345.5Z" fill="#642d19" stroke="#642d19"></path><path d="M317.9 334.5L399.4 344.5L393.4 295Z" fill="#2c1a32" stroke="#2c1a32"></path><path d="M399.4 344.5L354.9 378L436.4 421Z" fill="#511d2e" stroke="#511d2e"></path><path d="M436.4 421L386.4 494.5L480 472.5Z" fill="#20192f" stroke="#20192f"></path><path d="M658.7 278L686.7 222.5L642.1 262Z" fill="#0a1423" stroke="#0a1423"></path><path d="M600.1 211.5L615.1 144L569.6 189.5Z" fill="#20192f" stroke="#20192f"></path><path d="M727.3 281L686.7 222.5L658.7 278Z" fill="#642d19" stroke="#642d19"></path><path d="M686.7 222.5L615.1 144L600.1 211.5Z" fill="#451c32" stroke="#451c32"></path><path d="M548.6 112L465 127L470 200.5Z" fill="#391b33" stroke="#391b33"></path><path d="M548.6 112L470 200.5L569.6 189.5Z" fill="#00101c" stroke="#00101c"></path><path d="M431.4 196.5L330.9 226.5L369.9 262Z" fill="#391b33" stroke="#391b33"></path><path d="M573.6 540L602.1 493.5L573.6 461.5Z" fill="#00101c" stroke="#00101c"></path><path d="M573.6 461.5L669.7 447.5L641.1 403Z" fill="#20192f" stroke="#20192f"></path><path d="M641.1 403L699.7 406L697.7 352.5Z" fill="#602521" stroke="#602521"></path><path d="M602.1 493.5L669.7 447.5L573.6 461.5Z" fill="#00101c" stroke="#00101c"></path><path d="M669.7 447.5L699.7 406L641.1 403Z" fill="#2c1a32" stroke="#2c1a32"></path><path d="M615.1 144L548.6 112L569.6 189.5Z" fill="#5a2028" stroke="#5a2028"></path><path d="M766.3 347.5L727.3 281L697.7 352.5Z" fill="#451c32" stroke="#451c32"></path><path d="M697.7 352.5L727.3 281L658.7 278Z" fill="#602521" stroke="#602521"></path><path d="M369.9 262L317.9 334.5L393.4 295Z" fill="#20192f" stroke="#20192f"></path><path d="M296.3 288L317.9 334.5L369.9 262Z" fill="#00101c" stroke="#00101c"></path><path d="M369.9 141L330.9 226.5L431.4 196.5Z" fill="#2c1a32" stroke="#2c1a32"></path><path d="M769.3 490.5L726.3 397L699.7 406Z" fill="#20192f" stroke="#20192f"></path><path d="M699.7 406L726.3 397L697.7 352.5Z" fill="#0a1423" stroke="#0a1423"></path><path d="M428.4 85.5L386.4 130L465 127Z" fill="#391b33" stroke="#391b33"></path><path d="M465 127L386.4 130L431.4 196.5Z" fill="#00101c" stroke="#00101c"></path><path d="M330.9 226.5L296.3 288L369.9 262Z" fill="#00101c" stroke="#00101c"></path><path d="M359.9 483.5L354.9 378L262.3 413Z" fill="#451c32" stroke="#451c32"></path><path d="M359.9 483.5L436.4 421L354.9 378Z" fill="#602521" stroke="#602521"></path><path d="M359.9 483.5L386.4 494.5L436.4 421Z" fill="#14172a" stroke="#14172a"></path><path d="M480 472.5L573.6 540L573.6 461.5Z" fill="#391b33" stroke="#391b33"></path><path d="M386.4 130L369.9 141L431.4 196.5Z" fill="#20192f" stroke="#20192f"></path><path d="M198.7 264L264.3 313.5L296.3 288Z" fill="#14172a" stroke="#14172a"></path><path d="M386.4 494.5L476 540L480 472.5Z" fill="#451c32" stroke="#451c32"></path><path d="M476 540L573.6 540L480 472.5Z" fill="#0a1423" stroke="#0a1423"></path><path d="M602.1 493.5L667.7 540L669.7 447.5Z" fill="#602521" stroke="#602521"></path><path d="M769.3 490.5L794.9 425L726.3 397Z" fill="#391b33" stroke="#391b33"></path><path d="M262.3 413L354.9 378L317.9 334.5Z" fill="#602521" stroke="#602521"></path><path d="M386.4 494.5L399.4 540L476 540Z" fill="#2c1a32" stroke="#2c1a32"></path><path d="M686.7 222.5L673.7 125L615.1 144Z" fill="#20192f" stroke="#20192f"></path><path d="M615.1 144L629.1 69.5L548.6 112Z" fill="#511d2e" stroke="#511d2e"></path><path d="M769.3 183.5L673.7 125L686.7 222.5Z" fill="#00101c" stroke="#00101c"></path><path d="M471 60.5L465 127L548.6 112Z" fill="#451c32" stroke="#451c32"></path><path d="M471 60.5L428.4 85.5L465 127Z" fill="#2c1a32" stroke="#2c1a32"></path><path d="M386.4 130L335.9 88.5L369.9 141Z" fill="#642d19" stroke="#642d19"></path><path d="M726.3 397L766.3 347.5L697.7 352.5Z" fill="#602521" stroke="#602521"></path><path d="M727.3 281L769.3 183.5L686.7 222.5Z" fill="#451c32" stroke="#451c32"></path><path d="M573.6 540L631.1 540L602.1 493.5Z" fill="#511d2e" stroke="#511d2e"></path><path d="M726.3 397L794.9 425L766.3 347.5Z" fill="#642d19" stroke="#642d19"></path><path d="M561.6 40.5L471 60.5L548.6 112Z" fill="#00101c" stroke="#00101c"></path><path d="M253.3 208.5L296.3 288L330.9 226.5Z" fill="#0a1423" stroke="#0a1423"></path><path d="M296.3 288L264.3 313.5L317.9 334.5Z" fill="#642d19" stroke="#642d19"></path><path d="M365.9 540L399.4 540L386.4 494.5Z" fill="#0a1423" stroke="#0a1423"></path><path d="M673.7 125L629.1 69.5L615.1 144Z" fill="#602521" stroke="#602521"></path><path d="M631.1 540L667.7 540L602.1 493.5Z" fill="#451c32" stroke="#451c32"></path><path d="M629.1 69.5L561.6 40.5L548.6 112Z" fill="#20192f" stroke="#20192f"></path><path d="M813.9 279L769.3 183.5L727.3 281Z" fill="#14172a" stroke="#14172a"></path><path d="M673.7 125L668.7 74.5L629.1 69.5Z" fill="#0a1423" stroke="#0a1423"></path><path d="M290.3 540L365.9 540L359.9 483.5Z" fill="#5a2028" stroke="#5a2028"></path><path d="M359.9 483.5L365.9 540L386.4 494.5Z" fill="#511d2e" stroke="#511d2e"></path><path d="M739.3 45.5L668.7 74.5L673.7 125Z" fill="#14172a" stroke="#14172a"></path><path d="M613.1 0L568.6 0L561.6 40.5Z" fill="#642d19" stroke="#642d19"></path><path d="M264.3 313.5L262.3 413L317.9 334.5Z" fill="#20192f" stroke="#20192f"></path><path d="M272.3 138L330.9 226.5L369.9 141Z" fill="#0a1423" stroke="#0a1423"></path><path d="M272.3 138L253.3 208.5L330.9 226.5Z" fill="#0a1423" stroke="#0a1423"></path><path d="M264.3 313.5L213.7 353.5L262.3 413Z" fill="#602521" stroke="#602521"></path><path d="M364.9 0L335.9 88.5L428.4 85.5Z" fill="#5a2028" stroke="#5a2028"></path><path d="M428.4 85.5L335.9 88.5L386.4 130Z" fill="#602521" stroke="#602521"></path><path d="M432.4 0L428.4 85.5L471 60.5Z" fill="#20192f" stroke="#20192f"></path><path d="M830.9 320.5L813.9 279L766.3 347.5Z" fill="#0a1423" stroke="#0a1423"></path><path d="M766.3 347.5L813.9 279L727.3 281Z" fill="#00101c" stroke="#00101c"></path><path d="M769.3 490.5L699.7 406L669.7 447.5Z" fill="#2c1a32" stroke="#2c1a32"></path><path d="M262.3 413L271.3 471.5L359.9 483.5Z" fill="#5a2028" stroke="#5a2028"></path><path d="M335.9 88.5L272.3 138L369.9 141Z" fill="#00101c" stroke="#00101c"></path><path d="M732.3 540L769.3 490.5L669.7 447.5Z" fill="#642d19" stroke="#642d19"></path><path d="M813.9 279L803.9 187.5L769.3 183.5Z" fill="#2c1a32" stroke="#2c1a32"></path><path d="M769.3 183.5L781.3 145L673.7 125Z" fill="#511d2e" stroke="#511d2e"></path><path d="M803.9 187.5L781.3 145L769.3 183.5Z" fill="#0a1423" stroke="#0a1423"></path><path d="M865.4 386L830.9 320.5L766.3 347.5Z" fill="#451c32" stroke="#451c32"></path><path d="M813.9 279L905.4 285L803.9 187.5Z" fill="#642d19" stroke="#642d19"></path><path d="M667.7 540L732.3 540L669.7 447.5Z" fill="#5a2028" stroke="#5a2028"></path><path d="M568.6 0L506 0L561.6 40.5Z" fill="#14172a" stroke="#14172a"></path><path d="M561.6 40.5L506 0L471 60.5Z" fill="#511d2e" stroke="#511d2e"></path><path d="M198.7 264L213.7 353.5L264.3 313.5Z" fill="#14172a" stroke="#14172a"></path><path d="M262.3 413L188.7 488.5L271.3 471.5Z" fill="#14172a" stroke="#14172a"></path><path d="M198.7 264L296.3 288L253.3 208.5Z" fill="#2c1a32" stroke="#2c1a32"></path><path d="M613.1 0L629.1 69.5L680.7 0Z" fill="#602521" stroke="#602521"></path><path d="M613.1 0L561.6 40.5L629.1 69.5Z" fill="#602521" stroke="#602521"></path><path d="M769.3 490.5L805.9 449.5L794.9 425Z" fill="#20192f" stroke="#20192f"></path><path d="M865.4 386L863.4 327.5L830.9 320.5Z" fill="#451c32" stroke="#451c32"></path><path d="M823.9 540L805.9 449.5L769.3 490.5Z" fill="#511d2e" stroke="#511d2e"></path><path d="M680.7 0L629.1 69.5L668.7 74.5Z" fill="#391b33" stroke="#391b33"></path><path d="M506 0L432.4 0L471 60.5Z" fill="#602521" stroke="#602521"></path><path d="M246.3 76.5L215.7 134L272.3 138Z" fill="#14172a" stroke="#14172a"></path><path d="M197.7 540L290.3 540L271.3 471.5Z" fill="#642d19" stroke="#642d19"></path><path d="M271.3 471.5L290.3 540L359.9 483.5Z" fill="#5a2028" stroke="#5a2028"></path><path d="M182.7 216.5L198.7 264L253.3 208.5Z" fill="#451c32" stroke="#451c32"></path><path d="M865.4 386L766.3 347.5L794.9 425Z" fill="#602521" stroke="#602521"></path><path d="M830.9 320.5L863.4 327.5L813.9 279Z" fill="#602521" stroke="#602521"></path><path d="M821.9 48.5L739.3 45.5L781.3 145Z" fill="#391b33" stroke="#391b33"></path><path d="M781.3 145L739.3 45.5L673.7 125Z" fill="#642d19" stroke="#642d19"></path><path d="M739.3 45.5L680.7 0L668.7 74.5Z" fill="#20192f" stroke="#20192f"></path><path d="M432.4 0L364.9 0L428.4 85.5Z" fill="#14172a" stroke="#14172a"></path><path d="M803.9 187.5L826.9 139L781.3 145Z" fill="#642d19" stroke="#642d19"></path><path d="M870.4 141L826.9 139L803.9 187.5Z" fill="#642d19" stroke="#642d19"></path><path d="M805.9 449.5L865.4 386L794.9 425Z" fill="#0a1423" stroke="#0a1423"></path><path d="M896.4 453.5L865.4 386L805.9 449.5Z" fill="#602521" stroke="#602521"></path><path d="M143.1 382L183.7 408L213.7 353.5Z" fill="#20192f" stroke="#20192f"></path><path d="M213.7 353.5L183.7 408L262.3 413Z" fill="#391b33" stroke="#391b33"></path><path d="M215.7 134L182.7 216.5L253.3 208.5Z" fill="#602521" stroke="#602521"></path><path d="M126.1 297L143.1 382L213.7 353.5Z" fill="#642d19" stroke="#642d19"></path><path d="M215.7 134L253.3 208.5L272.3 138Z" fill="#00101c" stroke="#00101c"></path><path d="M246.3 76.5L272.3 138L335.9 88.5Z" fill="#391b33" stroke="#391b33"></path><path d="M256.3 0L246.3 76.5L335.9 88.5Z" fill="#451c32" stroke="#451c32"></path><path d="M732.3 540L823.9 540L769.3 490.5Z" fill="#20192f" stroke="#20192f"></path><path d="M183.7 408L188.7 488.5L262.3 413Z" fill="#602521" stroke="#602521"></path><path d="M960 265L905.4 285L960 359.5Z" fill="#00101c" stroke="#00101c"></path><path d="M960 359.5L905.4 285L863.4 327.5Z" fill="#20192f" stroke="#20192f"></path><path d="M863.4 327.5L905.4 285L813.9 279Z" fill="#14172a" stroke="#14172a"></path><path d="M126.1 297L213.7 353.5L198.7 264Z" fill="#511d2e" stroke="#511d2e"></path><path d="M183.7 408L125.1 490.5L188.7 488.5Z" fill="#0a1423" stroke="#0a1423"></path><path d="M918.4 175.5L870.4 141L803.9 187.5Z" fill="#14172a" stroke="#14172a"></path><path d="M821.9 48.5L767.3 0L739.3 45.5Z" fill="#451c32" stroke="#451c32"></path><path d="M739.3 45.5L767.3 0L680.7 0Z" fill="#642d19" stroke="#642d19"></path><path d="M821.9 48.5L781.3 145L826.9 139Z" fill="#14172a" stroke="#14172a"></path><path d="M135.1 197.5L126.1 297L182.7 216.5Z" fill="#00101c" stroke="#00101c"></path><path d="M182.7 216.5L126.1 297L198.7 264Z" fill="#602521" stroke="#602521"></path><path d="M135.1 197.5L182.7 216.5L215.7 134Z" fill="#511d2e" stroke="#511d2e"></path><path d="M891.4 89.5L821.9 48.5L826.9 139Z" fill="#451c32" stroke="#451c32"></path><path d="M146.1 540L197.7 540L188.7 488.5Z" fill="#451c32" stroke="#451c32"></path><path d="M188.7 488.5L197.7 540L271.3 471.5Z" fill="#451c32" stroke="#451c32"></path><path d="M869.4 540L896.4 453.5L805.9 449.5Z" fill="#00101c" stroke="#00101c"></path><path d="M126.1 148L135.1 197.5L215.7 134Z" fill="#391b33" stroke="#391b33"></path><path d="M364.9 0L256.3 0L335.9 88.5Z" fill="#391b33" stroke="#391b33"></path><path d="M246.3 76.5L205.7 41.5L215.7 134Z" fill="#20192f" stroke="#20192f"></path><path d="M126.1 297L116.1 359.5L143.1 382Z" fill="#391b33" stroke="#391b33"></path><path d="M90.6 432L125.1 490.5L183.7 408Z" fill="#00101c" stroke="#00101c"></path><path d="M90.6 432L116.1 359.5L55.6 348.5Z" fill="#511d2e" stroke="#511d2e"></path><path d="M823.9 540L869.4 540L805.9 449.5Z" fill="#20192f" stroke="#20192f"></path><path d="M256.3 0L205.7 41.5L246.3 76.5Z" fill="#14172a" stroke="#14172a"></path><path d="M905.4 285L918.4 175.5L803.9 187.5Z" fill="#642d19" stroke="#642d19"></path><path d="M870.4 141L891.4 89.5L826.9 139Z" fill="#451c32" stroke="#451c32"></path><path d="M960 205.5L918.4 175.5L905.4 285Z" fill="#511d2e" stroke="#511d2e"></path><path d="M138.1 86.5L126.1 148L215.7 134Z" fill="#00101c" stroke="#00101c"></path><path d="M135.1 197.5L69.6 265L126.1 297Z" fill="#2c1a32" stroke="#2c1a32"></path><path d="M960 124L891.4 89.5L870.4 141Z" fill="#451c32" stroke="#451c32"></path><path d="M821.9 48.5L848.9 0L767.3 0Z" fill="#642d19" stroke="#642d19"></path><path d="M90.6 432L183.7 408L143.1 382Z" fill="#14172a" stroke="#14172a"></path><path d="M256.3 0L214.7 0L205.7 41.5Z" fill="#642d19" stroke="#642d19"></path><path d="M205.7 41.5L138.1 86.5L215.7 134Z" fill="#391b33" stroke="#391b33"></path><path d="M960 359.5L863.4 327.5L865.4 386Z" fill="#391b33" stroke="#391b33"></path><path d="M918.4 175.5L960 124L870.4 141Z" fill="#20192f" stroke="#20192f"></path><path d="M960 359.5L865.4 386L960 389Z" fill="#0a1423" stroke="#0a1423"></path><path d="M960 389L865.4 386L896.4 453.5Z" fill="#5a2028" stroke="#5a2028"></path><path d="M125.1 490.5L146.1 540L188.7 488.5Z" fill="#642d19" stroke="#642d19"></path><path d="M960 464.5L960 389L896.4 453.5Z" fill="#0a1423" stroke="#0a1423"></path><path d="M114.1 0L138.1 86.5L205.7 41.5Z" fill="#511d2e" stroke="#511d2e"></path><path d="M116.1 359.5L90.6 432L143.1 382Z" fill="#14172a" stroke="#14172a"></path><path d="M125.1 490.5L87.6 540L146.1 540Z" fill="#14172a" stroke="#14172a"></path><path d="M55.6 348.5L116.1 359.5L126.1 297Z" fill="#511d2e" stroke="#511d2e"></path><path d="M960 265L960 205.5L905.4 285Z" fill="#5a2028" stroke="#5a2028"></path><path d="M902.4 0L848.9 0L891.4 89.5Z" fill="#2c1a32" stroke="#2c1a32"></path><path d="M891.4 89.5L848.9 0L821.9 48.5Z" fill="#14172a" stroke="#14172a"></path><path d="M66.6 184.5L135.1 197.5L126.1 148Z" fill="#451c32" stroke="#451c32"></path><path d="M66.6 184.5L69.6 265L135.1 197.5Z" fill="#451c32" stroke="#451c32"></path><path d="M960 540L960 464.5L896.4 453.5Z" fill="#00101c" stroke="#00101c"></path><path d="M69.6 265L55.6 348.5L126.1 297Z" fill="#00101c" stroke="#00101c"></path><path d="M80.6 131L66.6 184.5L126.1 148Z" fill="#0a1423" stroke="#0a1423"></path><path d="M69.6 265L0 342.5L55.6 348.5Z" fill="#391b33" stroke="#391b33"></path><path d="M960 205.5L960 124L918.4 175.5Z" fill="#14172a" stroke="#14172a"></path><path d="M138.1 86.5L80.6 131L126.1 148Z" fill="#14172a" stroke="#14172a"></path><path d="M67.6 92.5L80.6 131L138.1 86.5Z" fill="#2c1a32" stroke="#2c1a32"></path><path d="M960 40.5L902.4 0L891.4 89.5Z" fill="#14172a" stroke="#14172a"></path><path d="M50.6 468.5L87.6 540L125.1 490.5Z" fill="#14172a" stroke="#14172a"></path><path d="M50.6 468.5L125.1 490.5L90.6 432Z" fill="#5a2028" stroke="#5a2028"></path><path d="M869.4 540L960 540L896.4 453.5Z" fill="#14172a" stroke="#14172a"></path><path d="M0 425L50.6 468.5L90.6 432Z" fill="#20192f" stroke="#20192f"></path><path d="M114.1 0L67.6 92.5L138.1 86.5Z" fill="#451c32" stroke="#451c32"></path><path d="M80.6 131L0 177.5L66.6 184.5Z" fill="#2c1a32" stroke="#2c1a32"></path><path d="M0 251L0 342.5L69.6 265Z" fill="#451c32" stroke="#451c32"></path><path d="M214.7 0L114.1 0L205.7 41.5Z" fill="#391b33" stroke="#391b33"></path><path d="M960 124L960 40.5L891.4 89.5Z" fill="#602521" stroke="#602521"></path><path d="M0 251L69.6 265L66.6 184.5Z" fill="#2c1a32" stroke="#2c1a32"></path><path d="M55.6 348.5L0 425L90.6 432Z" fill="#0a1423" stroke="#0a1423"></path><path d="M0 177.5L0 251L66.6 184.5Z" fill="#451c32" stroke="#451c32"></path><path d="M0 342.5L0 425L55.6 348.5Z" fill="#0a1423" stroke="#0a1423"></path><path d="M50.6 468.5L0 540L87.6 540Z" fill="#451c32" stroke="#451c32"></path><path d="M960 40.5L960 0L902.4 0Z" fill="#2c1a32" stroke="#2c1a32"></path><path d="M0 117L80.6 131L67.6 92.5Z" fill="#511d2e" stroke="#511d2e"></path><path d="M0 117L0 177.5L80.6 131Z" fill="#5a2028" stroke="#5a2028"></path><path d="M0 425L0 449.5L50.6 468.5Z" fill="#5a2028" stroke="#5a2028"></path><path d="M0 90.5L0 117L67.6 92.5Z" fill="#511d2e" stroke="#511d2e"></path><path d="M114.1 0L57.6 0L67.6 92.5Z" fill="#14172a" stroke="#14172a"></path><path d="M57.6 0L0 90.5L67.6 92.5Z" fill="#2c1a32" stroke="#2c1a32"></path><path d="M0 449.5L0 540L50.6 468.5Z" fill="#511d2e" stroke="#511d2e"></path><path d="M57.6 0L0 0L0 90.5Z" fill="#20192f" stroke="#20192f"></path></g></svg>