<svg id="visual" viewBox="0 0 900 600" width="900" height="600" xmlns="http://www.w3.org/2000/svg" xmlns:xlink="http://www.w3.org/1999/xlink" version="1.1"><rect x="0" y="0" width="900" height="600" fill="#ff7700"></rect><path d="M0 281L21.5 279.5C43 278 86 275 128.8 281C171.7 287 214.3 302 257.2 302.5C300 303 343 289 385.8 286.3C428.7 283.7 471.3 292.3 514.2 286.7C557 281 600 261 642.8 255.7C685.7 250.3 728.3 259.7 771.2 270.7C814 281.7 857 294.3 878.5 300.7L900 307L900 0L878.5 0C857 0 814 0 771.2 0C728.3 0 685.7 0 642.8 0C600 0 557 0 514.2 0C471.3 0 428.7 0 385.8 0C343 0 300 0 257.2 0C214.3 0 171.7 0 128.8 0C86 0 43 0 21.5 0L0 0Z" fill="#ff6e03"></path><path d="M0 240L21.5 234.3C43 228.7 86 217.3 128.8 220.5C171.7 223.7 214.3 241.3 257.2 237.7C300 234 343 209 385.8 207C428.7 205 471.3 226 514.2 226C557 226 600 205 642.8 200.3C685.7 195.7 728.3 207.3 771.2 210.2C814 213 857 207 878.5 204L900 201L900 0L878.5 0C857 0 814 0 771.2 0C728.3 0 685.7 0 642.8 0C600 0 557 0 514.2 0C471.3 0 428.7 0 385.8 0C343 0 300 0 257.2 0C214.3 0 171.7 0 128.8 0C86 0 43 0 21.5 0L0 0Z" fill="#fa5722"></path><path d="M0 198L21.5 188.8C43 179.7 86 161.3 128.8 151.8C171.7 142.3 214.3 141.7 257.2 149.7C300 157.7 343 174.3 385.8 178C428.7 181.7 471.3 172.3 514.2 163C557 153.7 600 144.3 642.8 143C685.7 141.7 728.3 148.3 771.2 162.7C814 177 857 199 878.5 210L900 221L900 0L878.5 0C857 0 814 0 771.2 0C728.3 0 685.7 0 642.8 0C600 0 557 0 514.2 0C471.3 0 428.7 0 385.8 0C343 0 300 0 257.2 0C214.3 0 171.7 0 128.8 0C86 0 43 0 21.5 0L0 0Z" fill="#f23f33"></path><path d="M0 147L21.5 139.7C43 132.3 86 117.7 128.8 120.2C171.7 122.7 214.3 142.3 257.2 141.8C300 141.3 343 120.7 385.8 115C428.7 109.3 471.3 118.7 514.2 117.7C557 116.7 600 105.3 642.8 108.7C685.7 112 728.3 130 771.2 131.7C814 133.3 857 118.7 878.5 111.3L900 104L900 0L878.5 0C857 0 814 0 771.2 0C728.3 0 685.7 0 642.8 0C600 0 557 0 514.2 0C471.3 0 428.7 0 385.8 0C343 0 300 0 257.2 0C214.3 0 171.7 0 128.8 0C86 0 43 0 21.5 0L0 0Z" fill="#e72640"></path><path d="M0 92L21.5 84.8C43 77.7 86 63.3 128.8 64.3C171.7 65.3 214.3 81.7 257.2 89.7C300 97.7 343 97.3 385.8 88C428.7 78.7 471.3 60.3 514.2 52.2C557 44 600 46 642.8 50.5C685.7 55 728.3 62 771.2 61.2C814 60.3 857 51.7 878.5 47.3L900 43L900 0L878.5 0C857 0 814 0 771.2 0C728.3 0 685.7 0 642.8 0C600 0 557 0 514.2 0C471.3 0 428.7 0 385.8 0C343 0 300 0 257.2 0C214.3 0 171.7 0 128.8 0C86 0 43 0 21.5 0L0 0Z" fill="#d9004b"></path></svg>