<svg id="visual" viewBox="0 0 960 540" width="960" height="540" xmlns="http://www.w3.org/2000/svg" xmlns:xlink="http://www.w3.org/1999/xlink" version="1.1"><rect x="0" y="0" width="960" height="540" fill="#00101c"></rect><path d="M202 540L266 540L266 517L170 517L170 493L198 493L198 470L234 470L234 446L154 446L154 423L194 423L194 399L186 399L186 376L196 376L196 352L343 352L343 329L249 329L249 305L229 305L229 282L253 282L253 258L278 258L278 235L273 235L273 211L187 211L187 188L341 188L341 164L250 164L250 141L306 141L306 117L326 117L326 94L213 94L213 70L334 70L334 47L211 47L211 23L217 23L217 0L960 0L960 23L960 23L960 47L960 47L960 70L960 70L960 94L960 94L960 117L960 117L960 141L960 141L960 164L960 164L960 188L960 188L960 211L960 211L960 235L960 235L960 258L960 258L960 282L960 282L960 305L960 305L960 329L960 329L960 352L960 352L960 376L960 376L960 399L960 399L960 423L960 423L960 446L960 446L960 470L960 470L960 493L960 493L960 517L960 517L960 540L960 540Z" fill="#0b151f"></path><path d="M232 540L363 540L363 517L291 517L291 493L284 493L284 470L303 470L303 446L379 446L379 423L247 423L247 399L199 399L199 376L346 376L346 352L387 352L387 329L255 329L255 305L335 305L335 282L301 282L301 258L354 258L354 235L244 235L244 211L188 211L188 188L254 188L254 164L355 164L355 141L210 141L210 117L214 117L214 94L385 94L385 70L401 70L401 47L382 47L382 23L364 23L364 0L960 0L960 23L960 23L960 47L960 47L960 70L960 70L960 94L960 94L960 117L960 117L960 141L960 141L960 164L960 164L960 188L960 188L960 211L960 211L960 235L960 235L960 258L960 258L960 282L960 282L960 305L960 305L960 329L960 329L960 352L960 352L960 376L960 376L960 399L960 399L960 423L960 423L960 446L960 446L960 470L960 470L960 493L960 493L960 517L960 517L960 540L960 540Z" fill="#111826"></path><path d="M310 540L410 540L410 517L431 517L431 493L261 493L261 470L444 470L444 446L455 446L455 423L287 423L287 399L299 399L299 376L333 376L333 352L416 352L416 329L387 329L387 305L378 305L378 282L286 282L286 258L396 258L396 235L459 235L459 211L277 211L277 188L344 188L344 164L427 164L427 141L341 141L341 117L266 117L266 94L313 94L313 70L347 70L347 47L349 47L349 23L395 23L395 0L960 0L960 23L960 23L960 47L960 47L960 70L960 70L960 94L960 94L960 117L960 117L960 141L960 141L960 164L960 164L960 188L960 188L960 211L960 211L960 235L960 235L960 258L960 258L960 282L960 282L960 305L960 305L960 329L960 329L960 352L960 352L960 376L960 376L960 399L960 399L960 423L960 423L960 446L960 446L960 470L960 470L960 493L960 493L960 517L960 517L960 540L960 540Z" fill="#181a2b"></path><path d="M320 540L339 540L339 517L490 517L490 493L364 493L364 470L355 470L355 446L385 446L385 423L437 423L437 399L342 399L342 376L352 376L352 352L468 352L468 329L342 329L342 305L383 305L383 282L463 282L463 258L433 258L433 235L468 235L468 211L375 211L375 188L350 188L350 164L372 164L372 141L432 141L432 117L323 117L323 94L459 94L459 70L472 70L472 47L339 47L339 23L427 23L427 0L960 0L960 23L960 23L960 47L960 47L960 70L960 70L960 94L960 94L960 117L960 117L960 141L960 141L960 164L960 164L960 188L960 188L960 211L960 211L960 235L960 235L960 258L960 258L960 282L960 282L960 305L960 305L960 329L960 329L960 352L960 352L960 376L960 376L960 399L960 399L960 423L960 423L960 446L960 446L960 470L960 470L960 493L960 493L960 517L960 517L960 540L960 540Z" fill="#211b30"></path><path d="M526 540L449 540L449 517L420 517L420 493L477 493L477 470L562 470L562 446L447 446L447 423L425 423L425 399L468 399L468 376L403 376L403 352L518 352L518 329L556 329L556 305L396 305L396 282L446 282L446 258L443 258L443 235L455 235L455 211L403 211L403 188L461 188L461 164L434 164L434 141L389 141L389 117L479 117L479 94L555 94L555 70L397 70L397 47L400 47L400 23L488 23L488 0L960 0L960 23L960 23L960 47L960 47L960 70L960 70L960 94L960 94L960 117L960 117L960 141L960 141L960 164L960 164L960 188L960 188L960 211L960 211L960 235L960 235L960 258L960 258L960 282L960 282L960 305L960 305L960 329L960 329L960 352L960 352L960 376L960 376L960 399L960 399L960 423L960 423L960 446L960 446L960 470L960 470L960 493L960 493L960 517L960 517L960 540L960 540Z" fill="#2c1c33"></path><path d="M575 540L548 540L548 517L505 517L505 493L500 493L500 470L586 470L586 446L501 446L501 423L603 423L603 399L582 399L582 376L587 376L587 352L488 352L488 329L579 329L579 305L564 305L564 282L488 282L488 258L535 258L535 235L599 235L599 211L552 211L552 188L485 188L485 164L555 164L555 141L609 141L609 117L509 117L509 94L551 94L551 70L516 70L516 47L547 47L547 23L481 23L481 0L960 0L960 23L960 23L960 47L960 47L960 70L960 70L960 94L960 94L960 117L960 117L960 141L960 141L960 164L960 164L960 188L960 188L960 211L960 211L960 235L960 235L960 258L960 258L960 282L960 282L960 305L960 305L960 329L960 329L960 352L960 352L960 376L960 376L960 399L960 399L960 423L960 423L960 446L960 446L960 470L960 470L960 493L960 493L960 517L960 517L960 540L960 540Z" fill="#371d34"></path><path d="M523 540L632 540L632 517L533 517L533 493L578 493L578 470L652 470L652 446L660 446L660 423L597 423L597 399L641 399L641 376L617 376L617 352L562 352L562 329L595 329L595 305L625 305L625 282L633 282L633 258L525 258L525 235L651 235L651 211L553 211L553 188L625 188L625 164L599 164L599 141L572 141L572 117L608 117L608 94L597 94L597 70L565 70L565 47L662 47L662 23L534 23L534 0L960 0L960 23L960 23L960 47L960 47L960 70L960 70L960 94L960 94L960 117L960 117L960 141L960 141L960 164L960 164L960 188L960 188L960 211L960 211L960 235L960 235L960 258L960 258L960 282L960 282L960 305L960 305L960 329L960 329L960 352L960 352L960 376L960 376L960 399L960 399L960 423L960 423L960 446L960 446L960 470L960 470L960 493L960 493L960 517L960 517L960 540L960 540Z" fill="#411d33"></path><path d="M702 540L586 540L586 517L691 517L691 493L620 493L620 470L681 470L681 446L699 446L699 423L631 423L631 399L647 399L647 376L667 376L667 352L638 352L638 329L671 329L671 305L639 305L639 282L622 282L622 258L683 258L683 235L609 235L609 211L680 211L680 188L658 188L658 164L672 164L672 141L654 141L654 117L613 117L613 94L593 94L593 70L608 70L608 47L609 47L609 23L674 23L674 0L960 0L960 23L960 23L960 47L960 47L960 70L960 70L960 94L960 94L960 117L960 117L960 141L960 141L960 164L960 164L960 188L960 188L960 211L960 211L960 235L960 235L960 258L960 258L960 282L960 282L960 305L960 305L960 329L960 329L960 352L960 352L960 376L960 376L960 399L960 399L960 423L960 423L960 446L960 446L960 470L960 470L960 493L960 493L960 517L960 517L960 540L960 540Z" fill="#4c1e31"></path><path d="M760 540L752 540L752 517L686 517L686 493L738 493L738 470L689 470L689 446L683 446L683 423L684 423L684 399L737 399L737 376L764 376L764 352L666 352L666 329L696 329L696 305L754 305L754 282L746 282L746 258L696 258L696 235L755 235L755 211L713 211L713 188L664 188L664 164L692 164L692 141L743 141L743 117L739 117L739 94L734 94L734 70L706 70L706 47L742 47L742 23L757 23L757 0L960 0L960 23L960 23L960 47L960 47L960 70L960 70L960 94L960 94L960 117L960 117L960 141L960 141L960 164L960 164L960 188L960 188L960 211L960 211L960 235L960 235L960 258L960 258L960 282L960 282L960 305L960 305L960 329L960 329L960 352L960 352L960 376L960 376L960 399L960 399L960 423L960 423L960 446L960 446L960 470L960 470L960 493L960 493L960 517L960 517L960 540L960 540Z" fill="#551f2d"></path><path d="M793 540L794 540L794 517L758 517L758 493L783 493L783 470L739 470L739 446L812 446L812 423L781 423L781 399L718 399L718 376L748 376L748 352L732 352L732 329L771 329L771 305L794 305L794 282L766 282L766 258L735 258L735 235L733 235L733 211L762 211L762 188L769 188L769 164L733 164L733 141L813 141L813 117L730 117L730 94L792 94L792 70L798 70L798 47L812 47L812 23L815 23L815 0L960 0L960 23L960 23L960 47L960 47L960 70L960 70L960 94L960 94L960 117L960 117L960 141L960 141L960 164L960 164L960 188L960 188L960 211L960 211L960 235L960 235L960 258L960 258L960 282L960 282L960 305L960 305L960 329L960 329L960 352L960 352L960 376L960 376L960 399L960 399L960 423L960 423L960 446L960 446L960 470L960 470L960 493L960 493L960 517L960 517L960 540L960 540Z" fill="#5c2227"></path><path d="M859 540L857 540L857 517L851 517L851 493L802 493L802 470L867 470L867 446L872 446L872 423L830 423L830 399L865 399L865 376L824 376L824 352L866 352L866 329L839 329L839 305L797 305L797 282L794 282L794 258L854 258L854 235L802 235L802 211L799 211L799 188L801 188L801 164L809 164L809 141L838 141L838 117L832 117L832 94L848 94L848 70L827 70L827 47L868 47L868 23L845 23L845 0L960 0L960 23L960 23L960 47L960 47L960 70L960 70L960 94L960 94L960 117L960 117L960 141L960 141L960 164L960 164L960 188L960 188L960 211L960 211L960 235L960 235L960 258L960 258L960 282L960 282L960 305L960 305L960 329L960 329L960 352L960 352L960 376L960 376L960 399L960 399L960 423L960 423L960 446L960 446L960 470L960 470L960 493L960 493L960 517L960 517L960 540L960 540Z" fill="#612721"></path><path d="M899 540L852 540L852 517L903 517L903 493L853 493L853 470L889 470L889 446L918 446L918 423L872 423L872 399L890 399L890 376L899 376L899 352L914 352L914 329L911 329L911 305L920 305L920 282L921 282L921 258L914 258L914 235L897 235L897 211L888 211L888 188L865 188L865 164L890 164L890 141L853 141L853 117L875 117L875 94L911 94L911 70L911 70L911 47L853 47L853 23L899 23L899 0L960 0L960 23L960 23L960 47L960 47L960 70L960 70L960 94L960 94L960 117L960 117L960 141L960 141L960 164L960 164L960 188L960 188L960 211L960 211L960 235L960 235L960 258L960 258L960 282L960 282L960 305L960 305L960 329L960 329L960 352L960 352L960 376L960 376L960 399L960 399L960 423L960 423L960 446L960 446L960 470L960 470L960 493L960 493L960 517L960 517L960 540L960 540Z" fill="#642d19"></path></svg>