<svg xmlns="http://www.w3.org/2000/svg" viewBox="0 0 1920 1080"><g transform="
          rotate(0 960 540) 
          translate(-0 -0)
          scale(1)
        "><rect width="1920" height="1080" fill="rgb(0, 16, 28)"></rect><g transform="translate(0, 0)"><path fill="rgb(8, 18, 28)" fill-opacity="1" d="M0,35.026L16.842,42.12C33.684,49.214,67.368,63.402,101.053,65.981C134.737,68.56,168.421,59.529,202.105,51.183C235.789,42.837,269.474,35.176,303.158,38.637C336.842,42.099,370.526,56.683,404.211,60.494C437.895,64.305,471.579,57.343,505.263,49.46C538.947,41.576,572.632,32.769,606.316,32.985C640,33.201,673.684,42.439,707.368,49.992C741.053,57.544,774.737,63.411,808.421,65.66C842.105,67.91,875.789,66.542,909.474,57.16C943.158,47.778,976.842,30.383,1010.526,24.521C1044.211,18.658,1077.895,24.329,1111.579,35.112C1145.263,45.895,1178.947,61.79,1212.632,71.603C1246.316,81.415,1280,85.145,1313.684,86.154C1347.368,87.162,1381.053,85.449,1414.737,77.96C1448.421,70.47,1482.105,57.205,1515.789,44.176C1549.474,31.146,1583.158,18.353,1616.842,23.322C1650.526,28.291,1684.211,51.023,1717.895,60.065C1751.579,69.107,1785.263,64.46,1818.947,67.074C1852.632,69.687,1886.316,79.561,1903.158,84.498L1920,89.435L1920,1080L1903.158,1080C1886.316,1080,1852.632,1080,1818.947,1080C1785.263,1080,1751.579,1080,1717.895,1080C1684.211,1080,1650.526,1080,1616.842,1080C1583.158,1080,1549.474,1080,1515.789,1080C1482.105,1080,1448.421,1080,1414.737,1080C1381.053,1080,1347.368,1080,1313.684,1080C1280,1080,1246.316,1080,1212.632,1080C1178.947,1080,1145.263,1080,1111.579,1080C1077.895,1080,1044.211,1080,1010.526,1080C976.842,1080,943.158,1080,909.474,1080C875.789,1080,842.105,1080,808.421,1080C774.737,1080,741.053,1080,707.368,1080C673.684,1080,640,1080,606.316,1080C572.632,1080,538.947,1080,505.263,1080C471.579,1080,437.895,1080,404.211,1080C370.526,1080,336.842,1080,303.158,1080C269.474,1080,235.789,1080,202.105,1080C168.421,1080,134.737,1080,101.053,1080C67.368,1080,33.684,1080,16.842,1080L0,1080Z"></path></g><g transform="translate(0, 90)"><path fill="rgb(17, 21, 28)" fill-opacity="1" d="M0,28.169L16.842,38.13C33.684,48.09,67.368,68.01,101.053,72.222C134.737,76.434,168.421,64.937,202.105,64.374C235.789,63.812,269.474,74.184,303.158,69.836C336.842,65.488,370.526,46.421,404.211,43.279C437.895,40.137,471.579,52.921,505.263,57.465C538.947,62.008,572.632,58.31,606.316,56.415C640,54.519,673.684,54.426,707.368,56.181C741.053,57.937,774.737,61.541,808.421,67.25C842.105,72.958,875.789,80.769,909.474,82.221C943.158,83.673,976.842,78.766,1010.526,69.81C1044.211,60.854,1077.895,47.851,1111.579,40.729C1145.263,33.607,1178.947,32.367,1212.632,38.84C1246.316,45.314,1280,59.5,1313.684,63.962C1347.368,68.424,1381.053,63.161,1414.737,60.483C1448.421,57.806,1482.105,57.714,1515.789,61.071C1549.474,64.428,1583.158,71.234,1616.842,74.725C1650.526,78.217,1684.211,78.394,1717.895,76.426C1751.579,74.459,1785.263,70.347,1818.947,58.706C1852.632,47.066,1886.316,27.896,1903.158,18.312L1920,8.727L1920,990L1903.158,990C1886.316,990,1852.632,990,1818.947,990C1785.263,990,1751.579,990,1717.895,990C1684.211,990,1650.526,990,1616.842,990C1583.158,990,1549.474,990,1515.789,990C1482.105,990,1448.421,990,1414.737,990C1381.053,990,1347.368,990,1313.684,990C1280,990,1246.316,990,1212.632,990C1178.947,990,1145.263,990,1111.579,990C1077.895,990,1044.211,990,1010.526,990C976.842,990,943.158,990,909.474,990C875.789,990,842.105,990,808.421,990C774.737,990,741.053,990,707.368,990C673.684,990,640,990,606.316,990C572.632,990,538.947,990,505.263,990C471.579,990,437.895,990,404.211,990C370.526,990,336.842,990,303.158,990C269.474,990,235.789,990,202.105,990C168.421,990,134.737,990,101.053,990C67.368,990,33.684,990,16.842,990L0,990Z"></path></g><g transform="translate(0, 180)"><path fill="rgb(25, 23, 27)" fill-opacity="1" d="M0,48.768L16.842,53.986C33.684,59.204,67.368,69.64,101.053,66.07C134.737,62.501,168.421,44.926,202.105,42.338C235.789,39.749,269.474,52.148,303.158,48.689C336.842,45.229,370.526,25.912,404.211,24.343C437.895,22.774,471.579,38.953,505.263,38.151C538.947,37.349,572.632,19.564,606.316,24.48C640,29.395,673.684,57.011,707.368,67.904C741.053,78.797,774.737,72.967,808.421,65.878C842.105,58.789,875.789,50.439,909.474,46.933C943.158,43.428,976.842,44.765,1010.526,37.88C1044.211,30.996,1077.895,15.89,1111.579,13.255C1145.263,10.621,1178.947,20.458,1212.632,29.44C1246.316,38.421,1280,46.546,1313.684,51.424C1347.368,56.303,1381.053,57.934,1414.737,61.927C1448.421,65.92,1482.105,72.274,1515.789,76.036C1549.474,79.799,1583.158,80.97,1616.842,81.681C1650.526,82.393,1684.211,82.644,1717.895,81.911C1751.579,81.179,1785.263,79.463,1818.947,67.712C1852.632,55.961,1886.316,34.176,1903.158,23.283L1920,12.391L1920,900L1903.158,900C1886.316,900,1852.632,900,1818.947,900C1785.263,900,1751.579,900,1717.895,900C1684.211,900,1650.526,900,1616.842,900C1583.158,900,1549.474,900,1515.789,900C1482.105,900,1448.421,900,1414.737,900C1381.053,900,1347.368,900,1313.684,900C1280,900,1246.316,900,1212.632,900C1178.947,900,1145.263,900,1111.579,900C1077.895,900,1044.211,900,1010.526,900C976.842,900,943.158,900,909.474,900C875.789,900,842.105,900,808.421,900C774.737,900,741.053,900,707.368,900C673.684,900,640,900,606.316,900C572.632,900,538.947,900,505.263,900C471.579,900,437.895,900,404.211,900C370.526,900,336.842,900,303.158,900C269.474,900,235.789,900,202.105,900C168.421,900,134.737,900,101.053,900C67.368,900,33.684,900,16.842,900L0,900Z"></path></g><g transform="translate(0, 270)"><path fill="rgb(33, 26, 27)" fill-opacity="1" d="M0,24.041L16.842,23.509C33.684,22.978,67.368,21.914,101.053,23.062C134.737,24.21,168.421,27.569,202.105,38.649C235.789,49.728,269.474,68.528,303.158,63.735C336.842,58.943,370.526,30.558,404.211,24.826C437.895,19.093,471.579,36.011,505.263,50.006C538.947,64,572.632,75.071,606.316,73.295C640,71.519,673.684,56.898,707.368,54.024C741.053,51.151,774.737,60.026,808.421,60.231C842.105,60.436,875.789,51.971,909.474,53.294C943.158,54.618,976.842,65.73,1010.526,62.929C1044.211,60.127,1077.895,43.414,1111.579,36.848C1145.263,30.283,1178.947,33.866,1212.632,42.815C1246.316,51.765,1280,66.08,1313.684,63.118C1347.368,60.155,1381.053,39.916,1414.737,32.487C1448.421,25.058,1482.105,30.439,1515.789,36.959C1549.474,43.478,1583.158,51.136,1616.842,45.441C1650.526,39.746,1684.211,20.698,1717.895,12.779C1751.579,4.859,1785.263,8.067,1818.947,15.039C1852.632,22.011,1886.316,32.747,1903.158,38.115L1920,43.483L1920,810L1903.158,810C1886.316,810,1852.632,810,1818.947,810C1785.263,810,1751.579,810,1717.895,810C1684.211,810,1650.526,810,1616.842,810C1583.158,810,1549.474,810,1515.789,810C1482.105,810,1448.421,810,1414.737,810C1381.053,810,1347.368,810,1313.684,810C1280,810,1246.316,810,1212.632,810C1178.947,810,1145.263,810,1111.579,810C1077.895,810,1044.211,810,1010.526,810C976.842,810,943.158,810,909.474,810C875.789,810,842.105,810,808.421,810C774.737,810,741.053,810,707.368,810C673.684,810,640,810,606.316,810C572.632,810,538.947,810,505.263,810C471.579,810,437.895,810,404.211,810C370.526,810,336.842,810,303.158,810C269.474,810,235.789,810,202.105,810C168.421,810,134.737,810,101.053,810C67.368,810,33.684,810,16.842,810L0,810Z"></path></g><g transform="translate(0, 360)"><path fill="rgb(42, 28, 27)" fill-opacity="1" d="M0,31.761L16.842,39.804C33.684,47.846,67.368,63.932,101.053,72.878C134.737,81.824,168.421,83.631,202.105,84.061C235.789,84.491,269.474,83.543,303.158,78.715C336.842,73.887,370.526,65.179,404.211,54.263C437.895,43.347,471.579,30.223,505.263,31.409C538.947,32.595,572.632,48.091,606.316,52.515C640,56.938,673.684,50.288,707.368,45.605C741.053,40.921,774.737,38.204,808.421,42.692C842.105,47.18,875.789,58.872,909.474,54.193C943.158,49.515,976.842,28.466,1010.526,29.697C1044.211,30.928,1077.895,54.439,1111.579,62.054C1145.263,69.669,1178.947,61.388,1212.632,57.452C1246.316,53.515,1280,53.924,1313.684,57.983C1347.368,62.042,1381.053,69.752,1414.737,74.241C1448.421,78.731,1482.105,80.001,1515.789,75.781C1549.474,71.561,1583.158,61.851,1616.842,48.629C1650.526,35.407,1684.211,18.673,1717.895,12.089C1751.579,5.506,1785.263,9.072,1818.947,22.397C1852.632,35.722,1886.316,58.806,1903.158,70.348L1920,81.89L1920,720L1903.158,720C1886.316,720,1852.632,720,1818.947,720C1785.263,720,1751.579,720,1717.895,720C1684.211,720,1650.526,720,1616.842,720C1583.158,720,1549.474,720,1515.789,720C1482.105,720,1448.421,720,1414.737,720C1381.053,720,1347.368,720,1313.684,720C1280,720,1246.316,720,1212.632,720C1178.947,720,1145.263,720,1111.579,720C1077.895,720,1044.211,720,1010.526,720C976.842,720,943.158,720,909.474,720C875.789,720,842.105,720,808.421,720C774.737,720,741.053,720,707.368,720C673.684,720,640,720,606.316,720C572.632,720,538.947,720,505.263,720C471.579,720,437.895,720,404.211,720C370.526,720,336.842,720,303.158,720C269.474,720,235.789,720,202.105,720C168.421,720,134.737,720,101.053,720C67.368,720,33.684,720,16.842,720L0,720Z"></path></g><g transform="translate(0, 450)"><path fill="rgb(50, 31, 27)" fill-opacity="1" d="M0,74.408L16.842,62.473C33.684,50.538,67.368,26.669,101.053,20.048C134.737,13.428,168.421,24.057,202.105,27.345C235.789,30.633,269.474,26.581,303.158,27.438C336.842,28.295,370.526,34.061,404.211,37.21C437.895,40.359,471.579,40.891,505.263,44.605C538.947,48.32,572.632,55.219,606.316,62.778C640,70.337,673.684,78.557,707.368,78.406C741.053,78.254,774.737,69.732,808.421,68.47C842.105,67.208,875.789,73.207,909.474,64.961C943.158,56.715,976.842,34.225,1010.526,21.895C1044.211,9.565,1077.895,7.395,1111.579,17.939C1145.263,28.483,1178.947,51.742,1212.632,53.294C1246.316,54.845,1280,34.69,1313.684,28.403C1347.368,22.115,1381.053,29.695,1414.737,39.365C1448.421,49.035,1482.105,60.794,1515.789,63.902C1549.474,67.01,1583.158,61.465,1616.842,55.751C1650.526,50.037,1684.211,44.152,1717.895,41.826C1751.579,39.499,1785.263,40.73,1818.947,41.124C1852.632,41.519,1886.316,41.076,1903.158,40.855L1920,40.634L1920,630L1903.158,630C1886.316,630,1852.632,630,1818.947,630C1785.263,630,1751.579,630,1717.895,630C1684.211,630,1650.526,630,1616.842,630C1583.158,630,1549.474,630,1515.789,630C1482.105,630,1448.421,630,1414.737,630C1381.053,630,1347.368,630,1313.684,630C1280,630,1246.316,630,1212.632,630C1178.947,630,1145.263,630,1111.579,630C1077.895,630,1044.211,630,1010.526,630C976.842,630,943.158,630,909.474,630C875.789,630,842.105,630,808.421,630C774.737,630,741.053,630,707.368,630C673.684,630,640,630,606.316,630C572.632,630,538.947,630,505.263,630C471.579,630,437.895,630,404.211,630C370.526,630,336.842,630,303.158,630C269.474,630,235.789,630,202.105,630C168.421,630,134.737,630,101.053,630C67.368,630,33.684,630,16.842,630L0,630Z"></path></g><g transform="translate(0, 540)"><path fill="rgb(58, 33, 26)" fill-opacity="1" d="M0,53.135L16.842,50.855C33.684,48.575,67.368,44.015,101.053,41.704C134.737,39.393,168.421,39.331,202.105,37.971C235.789,36.612,269.474,33.954,303.158,34.514C336.842,35.075,370.526,38.852,404.211,37.865C437.895,36.879,471.579,31.127,505.263,33.508C538.947,35.888,572.632,46.401,606.316,50.504C640,54.607,673.684,52.299,707.368,53.421C741.053,54.542,774.737,59.093,808.421,53.524C842.105,47.956,875.789,32.27,909.474,21.671C943.158,11.073,976.842,5.563,1010.526,5.518C1044.211,5.472,1077.895,10.892,1111.579,12.316C1145.263,13.741,1178.947,11.17,1212.632,21.267C1246.316,31.363,1280,54.127,1313.684,64.814C1347.368,75.501,1381.053,74.111,1414.737,74.506C1448.421,74.901,1482.105,77.082,1515.789,78.135C1549.474,79.188,1583.158,79.113,1616.842,70.8C1650.526,62.488,1684.211,45.937,1717.895,47.169C1751.579,48.402,1785.263,67.42,1818.947,69.176C1852.632,70.933,1886.316,55.43,1903.158,47.679L1920,39.927L1920,540L1903.158,540C1886.316,540,1852.632,540,1818.947,540C1785.263,540,1751.579,540,1717.895,540C1684.211,540,1650.526,540,1616.842,540C1583.158,540,1549.474,540,1515.789,540C1482.105,540,1448.421,540,1414.737,540C1381.053,540,1347.368,540,1313.684,540C1280,540,1246.316,540,1212.632,540C1178.947,540,1145.263,540,1111.579,540C1077.895,540,1044.211,540,1010.526,540C976.842,540,943.158,540,909.474,540C875.789,540,842.105,540,808.421,540C774.737,540,741.053,540,707.368,540C673.684,540,640,540,606.316,540C572.632,540,538.947,540,505.263,540C471.579,540,437.895,540,404.211,540C370.526,540,336.842,540,303.158,540C269.474,540,235.789,540,202.105,540C168.421,540,134.737,540,101.053,540C67.368,540,33.684,540,16.842,540L0,540Z"></path></g><g transform="translate(0, 630)"><path fill="rgb(67, 35, 26)" fill-opacity="1" d="M0,49.055L16.842,48.944C33.684,48.833,67.368,48.612,101.053,43.498C134.737,38.384,168.421,28.378,202.105,20.976C235.789,13.574,269.474,8.776,303.158,17.962C336.842,27.149,370.526,50.319,404.211,64.317C437.895,78.315,471.579,83.141,505.263,83.176C538.947,83.211,572.632,78.455,606.316,68.014C640,57.573,673.684,41.448,707.368,42.063C741.053,42.678,774.737,60.034,808.421,55.89C842.105,51.745,875.789,26.1,909.474,23.246C943.158,20.392,976.842,40.329,1010.526,48.091C1044.211,55.853,1077.895,51.44,1111.579,48.132C1145.263,44.825,1178.947,42.623,1212.632,44.433C1246.316,46.243,1280,52.064,1313.684,50.783C1347.368,49.502,1381.053,41.12,1414.737,36.616C1448.421,32.112,1482.105,31.486,1515.789,36.979C1549.474,42.472,1583.158,54.085,1616.842,62.735C1650.526,71.385,1684.211,77.074,1717.895,79.687C1751.579,82.301,1785.263,81.84,1818.947,69.864C1852.632,57.888,1886.316,34.396,1903.158,22.65L1920,10.905L1920,450L1903.158,450C1886.316,450,1852.632,450,1818.947,450C1785.263,450,1751.579,450,1717.895,450C1684.211,450,1650.526,450,1616.842,450C1583.158,450,1549.474,450,1515.789,450C1482.105,450,1448.421,450,1414.737,450C1381.053,450,1347.368,450,1313.684,450C1280,450,1246.316,450,1212.632,450C1178.947,450,1145.263,450,1111.579,450C1077.895,450,1044.211,450,1010.526,450C976.842,450,943.158,450,909.474,450C875.789,450,842.105,450,808.421,450C774.737,450,741.053,450,707.368,450C673.684,450,640,450,606.316,450C572.632,450,538.947,450,505.263,450C471.579,450,437.895,450,404.211,450C370.526,450,336.842,450,303.158,450C269.474,450,235.789,450,202.105,450C168.421,450,134.737,450,101.053,450C67.368,450,33.684,450,16.842,450L0,450Z"></path></g><g transform="translate(0, 720)"><path fill="rgb(75, 38, 26)" fill-opacity="1" d="M0,81.219L16.842,78.057C33.684,74.896,67.368,68.572,101.053,65.056C134.737,61.54,168.421,60.831,202.105,62.519C235.789,64.207,269.474,68.293,303.158,58.738C336.842,49.183,370.526,25.988,404.211,22.64C437.895,19.292,471.579,35.792,505.263,48.175C538.947,60.557,572.632,68.822,606.316,66.421C640,64.02,673.684,50.953,707.368,44.117C741.053,37.281,774.737,36.676,808.421,41.269C842.105,45.862,875.789,55.653,909.474,61.673C943.158,67.693,976.842,69.941,1010.526,59.807C1044.211,49.674,1077.895,27.16,1111.579,29.975C1145.263,32.79,1178.947,60.934,1212.632,66.529C1246.316,72.124,1280,55.169,1313.684,43.253C1347.368,31.338,1381.053,24.462,1414.737,18.502C1448.421,12.542,1482.105,7.497,1515.789,14.563C1549.474,21.628,1583.158,40.804,1616.842,54.121C1650.526,67.439,1684.211,74.898,1717.895,76.261C1751.579,77.625,1785.263,72.892,1818.947,61.535C1852.632,50.177,1886.316,32.195,1903.158,23.204L1920,14.213L1920,360L1903.158,360C1886.316,360,1852.632,360,1818.947,360C1785.263,360,1751.579,360,1717.895,360C1684.211,360,1650.526,360,1616.842,360C1583.158,360,1549.474,360,1515.789,360C1482.105,360,1448.421,360,1414.737,360C1381.053,360,1347.368,360,1313.684,360C1280,360,1246.316,360,1212.632,360C1178.947,360,1145.263,360,1111.579,360C1077.895,360,1044.211,360,1010.526,360C976.842,360,943.158,360,909.474,360C875.789,360,842.105,360,808.421,360C774.737,360,741.053,360,707.368,360C673.684,360,640,360,606.316,360C572.632,360,538.947,360,505.263,360C471.579,360,437.895,360,404.211,360C370.526,360,336.842,360,303.158,360C269.474,360,235.789,360,202.105,360C168.421,360,134.737,360,101.053,360C67.368,360,33.684,360,16.842,360L0,360Z"></path></g><g transform="translate(0, 810)"><path fill="rgb(83, 40, 26)" fill-opacity="1" d="M0,18.935L16.842,28.678C33.684,38.42,67.368,57.906,101.053,57.53C134.737,57.154,168.421,36.917,202.105,35.17C235.789,33.423,269.474,50.166,303.158,55.311C336.842,60.456,370.526,54.004,404.211,54.753C437.895,55.503,471.579,63.455,505.263,62.814C538.947,62.173,572.632,52.938,606.316,53.1C640,53.262,673.684,62.822,707.368,62.352C741.053,61.882,774.737,51.383,808.421,50.375C842.105,49.368,875.789,57.853,909.474,59.949C943.158,62.044,976.842,57.749,1010.526,60.681C1044.211,63.614,1077.895,73.775,1111.579,77.732C1145.263,81.689,1178.947,79.442,1212.632,77.584C1246.316,75.725,1280,74.254,1313.684,75.211C1347.368,76.168,1381.053,79.553,1414.737,70.031C1448.421,60.508,1482.105,38.078,1515.789,36.265C1549.474,34.451,1583.158,53.255,1616.842,61.899C1650.526,70.544,1684.211,69.031,1717.895,58.389C1751.579,47.747,1785.263,27.976,1818.947,21.121C1852.632,14.265,1886.316,20.324,1903.158,23.354L1920,26.384L1920,270L1903.158,270C1886.316,270,1852.632,270,1818.947,270C1785.263,270,1751.579,270,1717.895,270C1684.211,270,1650.526,270,1616.842,270C1583.158,270,1549.474,270,1515.789,270C1482.105,270,1448.421,270,1414.737,270C1381.053,270,1347.368,270,1313.684,270C1280,270,1246.316,270,1212.632,270C1178.947,270,1145.263,270,1111.579,270C1077.895,270,1044.211,270,1010.526,270C976.842,270,943.158,270,909.474,270C875.789,270,842.105,270,808.421,270C774.737,270,741.053,270,707.368,270C673.684,270,640,270,606.316,270C572.632,270,538.947,270,505.263,270C471.579,270,437.895,270,404.211,270C370.526,270,336.842,270,303.158,270C269.474,270,235.789,270,202.105,270C168.421,270,134.737,270,101.053,270C67.368,270,33.684,270,16.842,270L0,270Z"></path></g><g transform="translate(0, 900)"><path fill="rgb(92, 43, 25)" fill-opacity="1" d="M0,42.936L16.842,49.571C33.684,56.206,67.368,69.475,101.053,71.922C134.737,74.369,168.421,65.993,202.105,56.134C235.789,46.275,269.474,34.932,303.158,26.629C336.842,18.326,370.526,13.062,404.211,11.327C437.895,9.593,471.579,11.387,505.263,22.217C538.947,33.048,572.632,52.914,606.316,61.773C640,70.633,673.684,68.485,707.368,56.477C741.053,44.47,774.737,22.604,808.421,22.955C842.105,23.306,875.789,45.875,909.474,52.196C943.158,58.516,976.842,48.589,1010.526,46.083C1044.211,43.577,1077.895,48.492,1111.579,45.273C1145.263,42.053,1178.947,30.699,1212.632,26.253C1246.316,21.806,1280,24.267,1313.684,26.906C1347.368,29.544,1381.053,32.36,1414.737,34.009C1448.421,35.658,1482.105,36.14,1515.789,37.499C1549.474,38.857,1583.158,41.093,1616.842,48.097C1650.526,55.101,1684.211,66.873,1717.895,61.832C1751.579,56.791,1785.263,34.937,1818.947,22.217C1852.632,9.498,1886.316,5.914,1903.158,4.122L1920,2.33L1920,180L1903.158,180C1886.316,180,1852.632,180,1818.947,180C1785.263,180,1751.579,180,1717.895,180C1684.211,180,1650.526,180,1616.842,180C1583.158,180,1549.474,180,1515.789,180C1482.105,180,1448.421,180,1414.737,180C1381.053,180,1347.368,180,1313.684,180C1280,180,1246.316,180,1212.632,180C1178.947,180,1145.263,180,1111.579,180C1077.895,180,1044.211,180,1010.526,180C976.842,180,943.158,180,909.474,180C875.789,180,842.105,180,808.421,180C774.737,180,741.053,180,707.368,180C673.684,180,640,180,606.316,180C572.632,180,538.947,180,505.263,180C471.579,180,437.895,180,404.211,180C370.526,180,336.842,180,303.158,180C269.474,180,235.789,180,202.105,180C168.421,180,134.737,180,101.053,180C67.368,180,33.684,180,16.842,180L0,180Z"></path></g><g transform="translate(0, 990)"><path fill="rgb(100, 45, 25)" fill-opacity="1" d="M0,12.014L16.842,13.527C33.684,15.039,67.368,18.064,101.053,25.793C134.737,33.523,168.421,45.957,202.105,55.808C235.789,65.658,269.474,72.924,303.158,77.571C336.842,82.217,370.526,84.244,404.211,77.789C437.895,71.333,471.579,56.396,505.263,42.372C538.947,28.349,572.632,15.24,606.316,20.183C640,25.125,673.684,48.12,707.368,54.035C741.053,59.951,774.737,48.787,808.421,47.841C842.105,46.895,875.789,56.165,909.474,62.154C943.158,68.142,976.842,70.848,1010.526,74.267C1044.211,77.685,1077.895,81.816,1111.579,77.881C1145.263,73.945,1178.947,61.942,1212.632,53.689C1246.316,45.435,1280,40.929,1313.684,44.151C1347.368,47.373,1381.053,58.321,1414.737,53.178C1448.421,48.034,1482.105,26.8,1515.789,18.647C1549.474,10.494,1583.158,15.424,1616.842,22.044C1650.526,28.665,1684.211,36.977,1717.895,37.304C1751.579,37.63,1785.263,29.97,1818.947,34.408C1852.632,38.846,1886.316,55.381,1903.158,63.649L1920,71.917L1920,90L1903.158,90C1886.316,90,1852.632,90,1818.947,90C1785.263,90,1751.579,90,1717.895,90C1684.211,90,1650.526,90,1616.842,90C1583.158,90,1549.474,90,1515.789,90C1482.105,90,1448.421,90,1414.737,90C1381.053,90,1347.368,90,1313.684,90C1280,90,1246.316,90,1212.632,90C1178.947,90,1145.263,90,1111.579,90C1077.895,90,1044.211,90,1010.526,90C976.842,90,943.158,90,909.474,90C875.789,90,842.105,90,808.421,90C774.737,90,741.053,90,707.368,90C673.684,90,640,90,606.316,90C572.632,90,538.947,90,505.263,90C471.579,90,437.895,90,404.211,90C370.526,90,336.842,90,303.158,90C269.474,90,235.789,90,202.105,90C168.421,90,134.737,90,101.053,90C67.368,90,33.684,90,16.842,90L0,90Z"></path></g></g></svg>