<svg xmlns="http://www.w3.org/2000/svg" version="1.1" xmlns:xlink="http://www.w3.org/1999/xlink" xmlns:svgjs="http://svgjs.dev/svgjs" width="1440" height="560" preserveAspectRatio="none" viewBox="0 0 1440 560"><g mask="url(&quot;#SvgjsMask1064&quot;)" fill="none"><rect width="1440" height="560" x="0" y="0" fill="rgba(231, 239, 224, 1)"></rect><path d="M800.02 488.21L814.28 488.21L814.28 502.47L800.02 502.47z" stroke="#d3b714"></path><path d="M593.63 35.67L621.87 35.67L621.87 63.91L593.63 63.91z" stroke="#d3b714"></path><path d="M680.43 469.02L715.94 469.02L715.94 474.67L680.43 474.67z" stroke="rgba(3, 123, 11, 1)"></path><path d="M125.11 206.12a3.94 3.94 0 1 0 1.94 7.63z" stroke="#d3b714"></path><path d="M1208.2 255.43L1243.09 255.43L1243.09 266.83L1208.2 266.83z" fill="rgba(231, 54, 53, 1)"></path><path d="M122.11 436.5 a2.38 2.38 0 1 0 4.76 0 a2.38 2.38 0 1 0 -4.76 0z" fill="#d3b714"></path><path d="M656.4 21.46L679.3 21.46L679.3 44.36L656.4 44.36z" stroke="rgba(3, 123, 11, 1)"></path><path d="M698.88 351.23L701.59 351.23L701.59 356.41L698.88 356.41z" stroke="rgba(231, 54, 53, 1)"></path><path d="M41.47 285.25L53.11 285.25L53.11 292.6L41.47 292.6z" stroke="rgba(3, 123, 11, 1)"></path><path d="M316.02 409.38 a44.16 44.16 0 1 0 88.32 0 a44.16 44.16 0 1 0 -88.32 0z" fill="rgba(231, 54, 53, 1)"></path><path d="M819.02 8.2 a5.34 5.34 0 1 0 10.68 0 a5.34 5.34 0 1 0 -10.68 0z" fill="#d3b714"></path><path d="M824.88 126.27a52.76 52.76 0 1 0-79.66-69.21z" stroke="rgba(3, 123, 11, 1)"></path><path d="M298.03 145.78L318.73 145.78L318.73 166.48L298.03 166.48z" stroke="#d3b714"></path><path d="M244.34 31.58L246.05 31.58L246.05 48.59L244.34 48.59z" fill="#d3b714"></path><path d="M857.1 183.74L884.18 183.74L884.18 210.82L857.1 210.82z" fill="rgba(231, 54, 53, 1)"></path><path d="M338.03 230.88 a36.36 36.36 0 1 0 72.72 0 a36.36 36.36 0 1 0 -72.72 0z" stroke="#d3b714"></path><path d="M1120.89 297.59a24.15 24.15 0 1 0 13.82-46.28z" stroke="rgba(231, 54, 53, 1)"></path><path d="M786.41 355.37a42.7 42.7 0 1 0-84.04-15.19z" fill="rgba(3, 123, 11, 1)"></path><path d="M1418.25 481.21 a6.07 6.07 0 1 0 12.14 0 a6.07 6.07 0 1 0 -12.14 0z" fill="#d3b714"></path><path d="M1334.13 272.26L1336.69 272.26L1336.69 318.75L1334.13 318.75z" stroke="#d3b714"></path><path d="M1215.26 375.11a39.2 39.2 0 1 0 3.05 78.34z" stroke="rgba(3, 123, 11, 1)"></path><path d="M884.98 560.08a30.33 30.33 0 1 0-28.94-53.31z" fill="rgba(231, 54, 53, 1)"></path><path d="M699.44 143.87L748.41 143.87L748.41 198.07L699.44 198.07z" fill="rgba(3, 123, 11, 1)"></path><path d="M1192.63 143.02L1218.76 143.02L1218.76 169.15L1192.63 169.15z" stroke="#d3b714"></path><path d="M228.32 80.16a16.29 16.29 0 1 0 18.75 26.64z" stroke="rgba(3, 123, 11, 1)"></path><path d="M1099.03 240.34L1134.11 240.34L1134.11 275.42L1099.03 275.42z" fill="rgba(3, 123, 11, 1)"></path><path d="M1007.67 126.27L1049.98 126.27L1049.98 168.58L1007.67 168.58z" stroke="#d3b714"></path><path d="M555.39 288.51L566.98 288.51L566.98 300.1L555.39 300.1z" fill="rgba(3, 123, 11, 1)"></path><path d="M52.78 332.81 a26.2 26.2 0 1 0 52.4 0 a26.2 26.2 0 1 0 -52.4 0z" stroke="rgba(231, 54, 53, 1)"></path><path d="M1253.2 290.26a39.53 39.53 0 1 0-44.28 65.5z" stroke="rgba(231, 54, 53, 1)"></path><path d="M1428.22 65.82L1452.39 65.82L1452.39 81.07L1428.22 81.07z" fill="rgba(3, 123, 11, 1)"></path><path d="M856.21 40.98L860.82 40.98L860.82 45.59L856.21 45.59z" stroke="rgba(231, 54, 53, 1)"></path><path d="M611.13 386.99 a6.49 6.49 0 1 0 12.98 0 a6.49 6.49 0 1 0 -12.98 0z" fill="#d3b714"></path></g><defs><mask id="SvgjsMask1064"><rect width="1440" height="560" fill="#ffffff"></rect></mask></defs></svg>