<svg xmlns="http://www.w3.org/2000/svg" version="1.1" xmlns:xlink="http://www.w3.org/1999/xlink" xmlns:svgjs="http://svgjs.dev/svgjs" width="1440" height="560" preserveAspectRatio="none" viewBox="0 0 1440 560"><g mask="url(&quot;#SvgjsMask1003&quot;)" fill="none"><rect width="1440" height="560" x="0" y="0" fill="rgba(231, 239, 224, 1)"></rect><path d="M29.48 131.02 a27.39 27.39 0 1 0 54.78 0 a27.39 27.39 0 1 0 -54.78 0z" stroke="#037b0b"></path><path d="M504.74 369.54a24.36 24.36 0 1 0 41.25 25.93z" fill="#e73635"></path><path d="M850.03 20.62 a48.36 48.36 0 1 0 96.72 0 a48.36 48.36 0 1 0 -96.72 0z" fill="#e73635"></path><path d="M1401.97 535.58a30.19 30.19 0 1 0 10.6-59.44z" fill="#d3b714"></path><path d="M740.35 253.37L744.76 253.37L744.76 287.86L740.35 287.86z" stroke="#e73635"></path><path d="M927.92 173.43L942.75 173.43L942.75 174.03L927.92 174.03z" fill="#d3b714"></path><path d="M526.41 343.75 a15.77 15.77 0 1 0 31.54 0 a15.77 15.77 0 1 0 -31.54 0z" stroke="#037b0b"></path><path d="M1407.97 488.68L1408.85 488.68L1408.85 489.56L1407.97 489.56z" stroke="#e73635"></path><path d="M1008.35 541.26L1037.9 541.26L1037.9 587.61L1008.35 587.61z" fill="#037b0b"></path><path d="M733.26 176.84L788.45 176.84L788.45 196.94L733.26 196.94z" stroke="#e73635"></path><path d="M408.64 117.94a50.27 50.27 0 1 0 80.46-60.29z" fill="#e73635"></path><path d="M863.34 245.38 a26.72 26.72 0 1 0 53.44 0 a26.72 26.72 0 1 0 -53.44 0z" fill="#037b0b"></path><path d="M1373.74 99.31L1404.08 99.31L1404.08 129.65L1373.74 129.65z" fill="#d3b714"></path><path d="M1056.41 125.8L1098.01 125.8L1098.01 147.47L1056.41 147.47z" stroke="#d3b714"></path><path d="M1252.18 510.21 a47.86 47.86 0 1 0 95.72 0 a47.86 47.86 0 1 0 -95.72 0z" fill="#d3b714"></path><path d="M1275.94 433.58 a10.75 10.75 0 1 0 21.5 0 a10.75 10.75 0 1 0 -21.5 0z" fill="#e73635"></path><path d="M1316.27 377.71 a16.46 16.46 0 1 0 32.92 0 a16.46 16.46 0 1 0 -32.92 0z" stroke="#037b0b"></path><path d="M833.85 109.98L853.71 109.98L853.71 129.84L833.85 129.84z" fill="#d3b714"></path><path d="M1206.76 160.87L1222.53 160.87L1222.53 215.4L1206.76 215.4z" stroke="#037b0b"></path><path d="M591.84 101.91L633.8 101.91L633.8 143.87L591.84 143.87z" stroke="#e73635"></path><path d="M478.36 344.45a31.83 31.83 0 1 0-44.86-45.17z" stroke="#037b0b"></path><path d="M1436.07 317.03L1453.81 317.03L1453.81 334.77L1436.07 334.77z" fill="#d3b714"></path><path d="M62.65 280.61L88.95 280.61L88.95 306.91L62.65 306.91z" fill="#e73635"></path><path d="M1290.81 146.95L1330.76 146.95L1330.76 186.9L1290.81 186.9z" fill="#037b0b"></path><path d="M429.84 382.09 a41.75 41.75 0 1 0 83.5 0 a41.75 41.75 0 1 0 -83.5 0z" stroke="#e73635"></path><path d="M918.12 185.44L971.98 185.44L971.98 239.3L918.12 239.3z" stroke="#d3b714"></path><path d="M645.28 107.08L670.08 107.08L670.08 131.88L645.28 131.88z" stroke="#e73635"></path><path d="M308.26 454.61 a12.66 12.66 0 1 0 25.32 0 a12.66 12.66 0 1 0 -25.32 0z" fill="#d3b714"></path><path d="M787.98-17.92a33.94 33.94 0 1 0 39.49 55.22z" stroke="#e73635"></path><path d="M1314.16 481.91 a52.28 52.28 0 1 0 104.56 0 a52.28 52.28 0 1 0 -104.56 0z" stroke="#e73635"></path><path d="M28.57 508.8a0.92 0.92 0 1 0 1.12-1.46z" stroke="#037b0b"></path><path d="M361.05 29.32L399.76 29.32L399.76 39.32L361.05 39.32z" stroke="#e73635"></path><path d="M1166.15 200.17L1214.63 200.17L1214.63 214.72L1166.15 214.72z" stroke="#d3b714"></path></g><defs><mask id="SvgjsMask1003"><rect width="1440" height="560" fill="#ffffff"></rect></mask></defs></svg>