<svg id="visual" viewBox="0 0 900 600" width="900" height="600" xmlns="http://www.w3.org/2000/svg" xmlns:xlink="http://www.w3.org/1999/xlink" version="1.1"><path d="M0 37L18.8 45C37.7 53 75.3 69 112.8 71C150.3 73 187.7 61 225.2 59C262.7 57 300.3 65 337.8 71C375.3 77 412.7 81 450.2 76C487.7 71 525.3 57 562.8 49C600.3 41 637.7 39 675.2 44C712.7 49 750.3 61 787.8 61C825.3 61 862.7 49 881.3 43L900 37L900 0L881.3 0C862.7 0 825.3 0 787.8 0C750.3 0 712.7 0 675.2 0C637.7 0 600.3 0 562.8 0C525.3 0 487.7 0 450.2 0C412.7 0 375.3 0 337.8 0C300.3 0 262.7 0 225.2 0C187.7 0 150.3 0 112.8 0C75.3 0 37.7 0 18.8 0L0 0Z" fill="#740c1a"></path><path d="M0 151L18.8 156C37.7 161 75.3 171 112.8 163C150.3 155 187.7 129 225.2 118C262.7 107 300.3 111 337.8 124C375.3 137 412.7 159 450.2 162C487.7 165 525.3 149 562.8 138C600.3 127 637.7 121 675.2 123C712.7 125 750.3 135 787.8 132C825.3 129 862.7 113 881.3 105L900 97L900 35L881.3 41C862.7 47 825.3 59 787.8 59C750.3 59 712.7 47 675.2 42C637.7 37 600.3 39 562.8 47C525.3 55 487.7 69 450.2 74C412.7 79 375.3 75 337.8 69C300.3 63 262.7 55 225.2 57C187.7 59 150.3 71 112.8 69C75.3 67 37.7 51 18.8 43L0 35Z" fill="#8a1121"></path><path d="M0 193L18.8 202C37.7 211 75.3 229 112.8 227C150.3 225 187.7 203 225.2 192C262.7 181 300.3 181 337.8 188C375.3 195 412.7 209 450.2 213C487.7 217 525.3 211 562.8 204C600.3 197 637.7 189 675.2 188C712.7 187 750.3 193 787.8 187C825.3 181 862.7 163 881.3 154L900 145L900 95L881.3 103C862.7 111 825.3 127 787.8 130C750.3 133 712.7 123 675.2 121C637.7 119 600.3 125 562.8 136C525.3 147 487.7 163 450.2 160C412.7 157 375.3 135 337.8 122C300.3 109 262.7 105 225.2 116C187.7 127 150.3 153 112.8 161C75.3 169 37.7 159 18.8 154L0 149Z" fill="#a01628"></path><path d="M0 361L18.8 363C37.7 365 75.3 369 112.8 369C150.3 369 187.7 365 225.2 365C262.7 365 300.3 369 337.8 381C375.3 393 412.7 413 450.2 415C487.7 417 525.3 401 562.8 376C600.3 351 637.7 317 675.2 315C712.7 313 750.3 343 787.8 354C825.3 365 862.7 357 881.3 353L900 349L900 143L881.3 152C862.7 161 825.3 179 787.8 185C750.3 191 712.7 185 675.2 186C637.7 187 600.3 195 562.8 202C525.3 209 487.7 215 450.2 211C412.7 207 375.3 193 337.8 186C300.3 179 262.7 179 225.2 190C187.7 201 150.3 223 112.8 225C75.3 227 37.7 209 18.8 200L0 191Z" fill="#b81c30"></path><path d="M0 529L18.8 530C37.7 531 75.3 533 112.8 535C150.3 537 187.7 539 225.2 531C262.7 523 300.3 505 337.8 505C375.3 505 412.7 523 450.2 527C487.7 531 525.3 521 562.8 512C600.3 503 637.7 495 675.2 488C712.7 481 750.3 475 787.8 472C825.3 469 862.7 469 881.3 469L900 469L900 347L881.3 351C862.7 355 825.3 363 787.8 352C750.3 341 712.7 311 675.2 313C637.7 315 600.3 349 562.8 374C525.3 399 487.7 415 450.2 413C412.7 411 375.3 391 337.8 379C300.3 367 262.7 363 225.2 363C187.7 363 150.3 367 112.8 367C75.3 367 37.7 363 18.8 361L0 359Z" fill="#cf2138"></path><path d="M0 601L18.8 601C37.7 601 75.3 601 112.8 601C150.3 601 187.7 601 225.2 601C262.7 601 300.3 601 337.8 601C375.3 601 412.7 601 450.2 601C487.7 601 525.3 601 562.8 601C600.3 601 637.7 601 675.2 601C712.7 601 750.3 601 787.8 601C825.3 601 862.7 601 881.3 601L900 601L900 467L881.3 467C862.7 467 825.3 467 787.8 470C750.3 473 712.7 479 675.2 486C637.7 493 600.3 501 562.8 510C525.3 519 487.7 529 450.2 525C412.7 521 375.3 503 337.8 503C300.3 503 262.7 521 225.2 529C187.7 537 150.3 535 112.8 533C75.3 531 37.7 529 18.8 528L0 527Z" fill="#e72640"></path></svg>